<svg viewBox="0 0 294 43" xmlns="http://www.w3.org/2000/svg" data-logo="logo">
        <g transform="translate(0, 1) rotate(0)" id="logogram" style="opacity: 1;"><path fill="#9712FA" d="M37.5569 2.04585C38.4821 1.08338 39.7385 0.542663 41.0469 0.542664C46.9335 0.542664 52.4811 0.542667 57.9442 0.542678C68.932 0.542701 74.4342 14.3629 66.6646 22.4456L49.7407 40.0517C48.9637 40.86 47.6352 40.2875 47.6352 39.1444V23.6376L49.591 21.6029C51.145 19.9864 50.0444 17.2223 47.8468 17.2223H22.9684L37.5569 2.04585Z"></path><path fill="#1A5DFC" d="M33.0467 38.8142C32.1215 39.7767 30.8651 40.3174 29.5567 40.3174C23.6701 40.3174 18.1225 40.3174 12.6594 40.3174C1.67159 40.3173 -3.83061 26.4972 3.93897 18.4144L20.8629 0.808361C21.6399 8.48472e-05 22.9684 0.57254 22.9684 1.71562L22.9684 17.2223L21.0126 19.2571C19.4586 20.8737 20.5592 23.6377 22.7568 23.6377L47.6352 23.6376L33.0467 38.8142Z"></path></g>
        <g transform="translate(77, 8)" id="logotype" style="opacity: 1;"><path d="M12.60 27L6.84 27L15.54 1.54L22.37 1.54L31.29 27L25.50 27L21.42 14.71Q20.68 12.34 19.92 9.51Q19.16 6.68 18.32 3.33L18.32 3.33L19.45 3.33Q18.65 6.70 17.94 9.54Q17.23 12.39 16.53 14.71L16.53 14.71L12.60 27ZM25.86 21.09L12.27 21.09L12.27 17.00L25.86 17.00L25.86 21.09ZM37.17 27L32.04 27L32.04 7.89L37.17 7.89L37.17 27ZM34.61 5.40L34.61 5.40Q33.44 5.40 32.62 4.63Q31.80 3.86 31.80 2.77L31.80 2.77Q31.80 1.67 32.62 0.90Q33.44 0.13 34.61 0.13L34.61 0.13Q35.77 0.13 36.60 0.90Q37.43 1.66 37.43 2.77L37.43 2.77Q37.43 3.86 36.60 4.63Q35.77 5.40 34.61 5.40ZM44.70 27L39.37 27L39.37 1.54L45.18 1.54L53.23 14.42Q53.85 15.41 54.48 16.58Q55.11 17.74 55.77 19.16Q56.43 20.57 57.08 22.35L57.08 22.35L56.55 22.35Q56.43 20.93 56.33 19.33Q56.24 17.72 56.17 16.25Q56.10 14.78 56.10 13.76L56.10 13.76L56.10 1.54L61.44 1.54L61.44 27L55.61 27L48.29 15.31Q47.49 13.99 46.81 12.76Q46.12 11.52 45.38 10.01Q44.64 8.51 43.61 6.44L43.61 6.44L44.28 6.44Q44.38 8.29 44.48 9.98Q44.58 11.67 44.64 13.05Q44.70 14.42 44.70 15.29L44.70 15.29L44.70 27ZM72.20 27.38L72.20 27.38Q69.33 27.38 67.23 26.14Q65.12 24.90 63.99 22.68Q62.85 20.47 62.85 17.53L62.85 17.53Q62.85 14.56 63.99 12.35Q65.12 10.13 67.23 8.89Q69.33 7.65 72.20 7.65L72.20 7.65Q75.09 7.65 77.18 8.89Q79.28 10.13 80.41 12.35Q81.55 14.56 81.55 17.53L81.55 17.53Q81.55 20.47 80.41 22.68Q79.28 24.90 77.18 26.14Q75.09 27.38 72.20 27.38ZM72.20 23.34L72.20 23.34Q73.57 23.34 74.49 22.58Q75.41 21.82 75.87 20.50Q76.34 19.17 76.34 17.52L76.34 17.52Q76.34 15.82 75.87 14.51Q75.41 13.19 74.49 12.44Q73.57 11.69 72.20 11.69L72.20 11.69Q70.83 11.69 69.92 12.44Q69.00 13.19 68.54 14.51Q68.08 15.82 68.08 17.52L68.08 17.52Q68.08 19.17 68.54 20.50Q69.00 21.82 69.92 22.58Q70.83 23.34 72.20 23.34ZM81.00 7.89L92.33 7.89L92.33 11.81L81.00 11.81L81.00 7.89ZM83.63 21.86L83.63 3.35L88.76 3.35L88.76 21.41Q88.76 22.32 89.16 22.75Q89.56 23.19 90.50 23.19L90.50 23.19Q90.79 23.19 91.32 23.11Q91.85 23.04 92.12 22.97L92.12 22.97L92.86 26.81Q92.00 27.07 91.16 27.17Q90.31 27.27 89.54 27.27L89.54 27.27Q86.67 27.27 85.15 25.87Q83.63 24.47 83.63 21.86L83.63 21.86ZM102.02 27.38L102.02 27.38Q99.10 27.38 96.98 26.18Q94.86 24.98 93.72 22.78Q92.58 20.57 92.58 17.55L92.58 17.55Q92.58 14.59 93.71 12.37Q94.84 10.15 96.91 8.90Q98.98 7.65 101.76 7.65L101.76 7.65Q103.64 7.65 105.26 8.25Q106.89 8.85 108.12 10.06Q109.35 11.26 110.04 13.07Q110.73 14.88 110.73 17.34L110.73 17.34L110.73 18.78L94.69 18.78L94.69 15.57L108.22 15.57L105.83 16.42Q105.83 14.93 105.38 13.83Q104.92 12.73 104.03 12.12Q103.13 11.52 101.80 11.52L101.80 11.52Q100.48 11.52 99.55 12.13Q98.62 12.75 98.14 13.80Q97.66 14.85 97.66 16.20L97.66 16.20L97.66 18.47Q97.66 20.13 98.22 21.26Q98.77 22.39 99.77 22.95Q100.77 23.51 102.10 23.51L102.10 23.51Q103.01 23.51 103.74 23.26Q104.48 23.00 105.00 22.50Q105.52 21.99 105.79 21.26L105.79 21.26L110.44 22.13Q109.98 23.70 108.84 24.89Q107.69 26.08 105.97 26.73Q104.26 27.38 102.02 27.38ZM119.55 27.38L119.55 27.38Q117.24 27.38 115.47 26.72Q113.69 26.06 112.56 24.80Q111.43 23.55 111.11 21.77L111.11 21.77L115.88 20.95Q116.25 22.28 117.19 22.95Q118.13 23.62 119.70 23.62L119.70 23.62Q121.16 23.62 122.01 23.06Q122.87 22.51 122.87 21.65L122.87 21.65Q122.87 20.90 122.26 20.42Q121.65 19.94 120.40 19.69L120.40 19.69L117.11 19.00Q114.34 18.44 112.97 17.08Q111.60 15.72 111.60 13.58L111.60 13.58Q111.60 11.74 112.61 10.41Q113.62 9.09 115.41 8.37Q117.21 7.65 119.64 7.65L119.64 7.65Q121.89 7.65 123.55 8.28Q125.21 8.90 126.23 10.05Q127.26 11.19 127.60 12.75L127.60 12.75L123.05 13.55Q122.76 12.58 121.93 11.95Q121.10 11.33 119.70 11.33L119.70 11.33Q118.44 11.33 117.58 11.86Q116.73 12.39 116.73 13.26L116.73 13.26Q116.73 13.99 117.29 14.49Q117.84 14.99 119.19 15.26L119.19 15.26L122.63 15.94Q125.39 16.51 126.74 17.78Q128.09 19.05 128.09 21.10L128.09 21.10Q128.09 22.98 127.00 24.39Q125.91 25.80 123.98 26.59Q122.06 27.38 119.55 27.38ZM136.18 5.86L128.38 5.86L128.38 1.54L149.18 1.54L149.18 5.86L141.41 5.86L141.41 27L136.18 27L136.18 5.86ZM155.71 27.38L155.71 27.38Q153.90 27.38 152.45 26.74Q151.01 26.09 150.18 24.82Q149.35 23.55 149.35 21.65L149.35 21.65Q149.35 20.06 149.94 18.98Q150.53 17.91 151.55 17.26Q152.56 16.61 153.85 16.27Q155.14 15.93 156.56 15.79L156.56 15.79Q158.22 15.62 159.24 15.47Q160.25 15.33 160.72 15.01Q161.19 14.70 161.19 14.08L161.19 14.08L161.19 13.99Q161.19 13.17 160.85 12.61Q160.51 12.05 159.84 11.75Q159.18 11.45 158.20 11.45L158.20 11.45Q157.21 11.45 156.48 11.75Q155.74 12.05 155.28 12.54Q154.82 13.04 154.60 13.65L154.60 13.65L149.90 12.87Q150.39 11.21 151.54 10.05Q152.68 8.88 154.38 8.27Q156.08 7.65 158.20 7.65L158.20 7.65Q159.76 7.65 161.21 8.02Q162.66 8.39 163.82 9.16Q164.97 9.93 165.65 11.16Q166.32 12.39 166.32 14.13L166.32 14.13L166.32 27L161.47 27L161.47 24.35L161.30 24.35Q160.83 25.24 160.07 25.91Q159.30 26.59 158.21 26.98Q157.13 27.38 155.71 27.38ZM157.16 23.77L157.16 23.77Q158.37 23.77 159.29 23.29Q160.20 22.81 160.72 21.99Q161.23 21.17 161.23 20.16L161.23 20.16L161.23 18.10Q161.01 18.27 160.54 18.40Q160.08 18.54 159.52 18.64Q158.95 18.75 158.41 18.83Q157.86 18.92 157.43 18.97L157.43 18.97Q156.49 19.10 155.78 19.41Q155.06 19.72 154.67 20.22Q154.27 20.73 154.27 21.51L154.27 21.51Q154.27 22.25 154.65 22.75Q155.02 23.26 155.66 23.51Q156.31 23.77 157.16 23.77ZM176.56 17.48L173.07 21.41L173.07 15.24L173.84 15.24L180.09 7.89L186.02 7.89L177.77 17.48L176.56 17.48ZM173.55 27L168.42 27L168.42 1.54L173.55 1.54L173.55 27ZM186.38 27L180.35 27L174.61 18.63L178.04 14.99L186.38 27ZM195.08 27.38L195.08 27.38Q192.16 27.38 190.04 26.18Q187.92 24.98 186.78 22.78Q185.65 20.57 185.65 17.55L185.65 17.55Q185.65 14.59 186.77 12.37Q187.90 10.15 189.97 8.90Q192.04 7.65 194.82 7.65L194.82 7.65Q196.70 7.65 198.33 8.25Q199.95 8.85 201.18 10.06Q202.41 11.26 203.10 13.07Q203.79 14.88 203.79 17.34L203.79 17.34L203.79 18.78L187.75 18.78L187.75 15.57L201.28 15.57L198.89 16.42Q198.89 14.93 198.44 13.83Q197.98 12.73 197.09 12.12Q196.19 11.52 194.86 11.52L194.86 11.52Q193.54 11.52 192.61 12.13Q191.68 12.75 191.20 13.80Q190.72 14.85 190.72 16.20L190.72 16.20L190.72 18.47Q190.72 20.13 191.28 21.26Q191.83 22.39 192.83 22.95Q193.83 23.51 195.16 23.51L195.16 23.51Q196.07 23.51 196.80 23.26Q197.54 23.00 198.06 22.50Q198.58 21.99 198.86 21.26L198.86 21.26L203.50 22.13Q203.04 23.70 201.90 24.89Q200.75 26.08 199.03 26.73Q197.32 27.38 195.08 27.38ZM210.15 27L205.02 27L205.02 7.89L209.98 7.89L209.98 11.23L210.18 11.23Q210.71 9.45 211.95 8.54Q213.19 7.64 214.80 7.64L214.80 7.64Q215.19 7.64 215.64 7.68Q216.10 7.72 216.46 7.81L216.46 7.81L216.46 12.39Q216.11 12.27 215.46 12.20Q214.82 12.13 214.23 12.13L214.23 12.13Q213.07 12.13 212.13 12.64Q211.19 13.14 210.67 14.04Q210.15 14.93 210.15 16.13L210.15 16.13L210.15 27Z" fill="#4946fb"></path></g>
        
      </svg>